# Blender v2.69 (sub 0) OBJ File: ''
# www.blender.org
mtllib box.mtl
o Cube
v 1.000000 -1.000000 -1.000000
v 1.000000 -1.000000 1.000000
v -1.000000 -1.000000 1.000000
v -1.000000 -1.000000 -1.000000
v 1.000000 1.000000 -0.999999
v 0.999999 1.000000 1.000001
v -1.000000 1.000000 1.000000
v -1.000000 1.000000 -1.000000
vt 0.500000 0.500000
vt -0.000000 0.500000
vt 0.500000 0.000000
vt 0.500000 1.000000
vt 1.000000 0.000000
vt 1.000000 0.500000
vt 1.000000 1.000000
vt 0.998607 -0.001394
vt 0.998607 0.501394
vt 0.501394 -0.001394
vt 0.000000 0.000000
vt 0.000000 1.000000
vt 0.501394 0.501394
vn 0.000000 -1.000000 0.000000
vn 0.000000 1.000000 0.000000
vn 1.000000 -0.000000 0.000000
vn 0.000000 -0.000000 1.000000
vn -1.000000 -0.000000 -0.000000
vn 0.000000 0.000000 -1.000000
vn 1.000000 0.000000 0.000001
usemtl Material.001
s off
f 1/1/1 2/2/1 4/3/1
f 5/1/2 8/4/2 6/2/2
f 1/5/3 5/6/3 2/3/3
f 2/6/4 6/7/4 3/1/4
f 3/8/5 7/9/5 4/10/5
f 5/4/6 1/1/6 8/7/6
f 2/2/1 3/11/1 4/3/1
f 8/4/2 7/12/2 6/2/2
f 5/6/7 6/1/7 2/3/7
f 6/7/4 7/4/4 3/1/4
f 7/9/5 8/13/5 4/10/5
f 1/1/6 4/6/6 8/7/6
