# Blender v2.69 (sub 0) OBJ File: 'mego-brick.blend'
# www.blender.org
o Cube
v -0.440603 -0.158617 0.489558
v -0.440603 -0.158617 0.585382
v -0.196396 -0.299610 0.489558
v -0.196396 -0.299610 0.585382
v -0.196396 -0.581595 0.489558
v -0.196396 -0.581595 0.585382
v -0.440603 -0.722588 0.489558
v -0.440603 -0.722588 0.585382
v -0.684809 -0.581595 0.489558
v -0.684809 -0.581595 0.585382
v -0.684809 -0.299610 0.489558
v -0.684809 -0.299610 0.585382
v 0.440603 -0.158617 0.489558
v 0.440603 -0.158617 0.585382
v 0.684809 -0.299610 0.489558
v 0.684809 -0.299610 0.585382
v 0.684809 -0.581595 0.489558
v 0.684809 -0.581595 0.585382
v 0.440603 -0.722588 0.489558
v 0.440603 -0.722588 0.585382
v 0.196396 -0.581595 0.489558
v 0.196396 -0.581595 0.585382
v 0.196396 -0.299610 0.489558
v 0.196396 -0.299610 0.585382
v -0.440603 0.722588 0.489558
v -0.440603 0.722588 0.585382
v -0.196396 0.581595 0.489558
v -0.196396 0.581595 0.585382
v -0.196396 0.299610 0.489558
v -0.196396 0.299610 0.585382
v -0.440603 0.158617 0.489558
v -0.440603 0.158617 0.585382
v -0.684809 0.299610 0.489558
v -0.684809 0.299610 0.585382
v -0.684809 0.581595 0.489558
v -0.684809 0.581595 0.585382
v 0.440603 0.722588 0.489558
v 0.440603 0.722588 0.585382
v 0.684809 0.581595 0.489558
v 0.684809 0.581595 0.585382
v 0.684809 0.299610 0.489558
v 0.684809 0.299610 0.585382
v 0.440603 0.158617 0.489558
v 0.440603 0.158617 0.585382
v 0.196396 0.299610 0.489558
v 0.196396 0.299610 0.585382
v 0.196396 0.581595 0.489558
v 0.196396 0.581595 0.585382
v 1.000000 1.000000 -0.500000
v 1.000000 -1.000000 -0.500000
v -1.000000 -1.000000 -0.500000
v -1.000000 1.000000 -0.500000
v 1.000000 0.999999 0.500000
v 0.999999 -1.000001 0.500000
v -1.000000 -1.000000 0.500000
v -1.000000 1.000000 0.500000
vt 0.721209 0.014422
vt 0.749208 0.062920
vt 0.559747 0.107730
vt 0.587423 0.342377
vt 0.531423 0.342376
vt 0.587347 0.155892
vt 0.559781 0.392638
vt 0.587968 0.344249
vt 0.720960 0.486433
vt 0.779714 0.485147
vt 0.751664 0.436679
vt 0.941079 0.391671
vt 0.587620 0.156250
vt 0.750000 0.062500
vt 0.912380 0.156250
vt 0.940155 0.108000
vt 0.912144 0.156491
vt 0.778637 0.014790
vt 0.968225 0.343211
vt 0.912225 0.343211
vt 0.968148 0.156727
vt 0.587620 0.343750
vt 0.750000 0.437500
vt 1.000000 0.500000
vt 1.000000 0.750000
vt 0.500000 0.500000
vt 1.000000 1.000000
vt 0.500000 0.750000
vt 0.500000 1.000000
vt 0.500000 0.000000
vt 0.000000 -0.000000
vt 0.000000 0.500000
vt 0.000000 1.000000
vt 0.587746 0.156228
vt 0.531347 0.155892
vt 0.749147 0.438044
vt 0.913029 0.343203
vt 0.912380 0.343750
vt 0.750626 0.063281
vt 0.912148 0.156726
vn 0.500000 0.866025 0.000000
vn 1.000000 -0.000000 0.000000
vn 0.500000 -0.866026 0.000000
vn -0.500000 -0.866026 0.000000
vn 0.000000 0.000000 1.000000
vn -0.500000 0.866025 0.000000
vn -1.000000 0.000000 0.000000
vn 0.500000 0.866026 0.000000
vn -0.500000 -0.866025 0.000000
vn -0.500000 0.866026 0.000000
vn -0.000000 -1.000000 -0.000001
vn 0.000000 1.000000 0.000000
vn 0.000000 0.000000 -1.000000
vn 0.500000 -0.866025 0.000000
vn 1.000000 -0.000001 0.000001
vn -0.000000 -1.000000 0.000000
s off
f 1/1/1 2/2/1 3/3/1
f 3/4/2 4/5/2 5/6/2
f 5/7/3 6/8/3 7/9/3
f 7/10/4 8/11/4 9/12/4
f 4/13/5 2/14/5 12/15/5
f 11/16/6 12/17/6 1/18/6
f 9/19/7 10/20/7 11/21/7
f 13/1/1 14/2/1 15/3/1
f 15/4/2 16/5/2 17/6/2
f 17/7/3 18/8/3 19/9/3
f 19/10/4 20/11/4 21/12/4
f 16/13/5 14/14/5 24/15/5
f 23/16/6 24/17/6 13/18/6
f 21/19/7 22/20/7 23/21/7
f 25/1/8 26/2/8 27/3/8
f 27/4/2 28/5/2 29/6/2
f 29/7/3 30/8/3 31/9/3
f 31/10/9 32/11/9 33/12/9
f 28/13/5 26/14/5 30/22/5
f 35/16/10 36/17/10 25/18/10
f 33/19/7 34/20/7 35/21/7
f 37/1/8 38/2/8 39/3/8
f 39/4/2 40/5/2 41/6/2
f 41/7/3 42/8/3 43/9/3
f 43/10/9 44/11/9 45/12/9
f 42/22/5 40/13/5 44/23/5
f 47/16/10 48/17/10 37/18/10
f 45/19/7 46/20/7 47/21/7
f 49/24/2 53/25/2 50/26/2
f 50/25/11 54/27/11 51/28/11
f 51/24/7 55/25/7 52/26/7
f 53/29/12 49/28/12 56/27/12
f 49/30/13 50/26/13 52/31/13
f 53/32/5 56/26/5 54/33/5
f 2/2/8 4/34/8 3/3/8
f 4/5/2 6/35/2 5/6/2
f 6/8/3 8/36/3 7/9/3
f 8/11/9 10/37/9 9/12/9
f 6/22/5 4/13/5 8/23/5
f 4/13/5 12/15/5 10/38/5
f 8/23/5 4/13/5 10/38/5
f 12/17/10 2/39/10 1/18/10
f 10/20/7 12/40/7 11/21/7
f 14/2/8 16/34/8 15/3/8
f 16/5/2 18/35/2 17/6/2
f 18/8/3 20/36/3 19/9/3
f 20/11/9 22/37/9 21/12/9
f 18/22/5 16/13/5 20/23/5
f 16/13/5 24/15/5 22/38/5
f 20/23/5 16/13/5 22/38/5
f 24/17/10 14/39/10 13/18/10
f 22/20/7 24/40/7 23/21/7
f 26/2/1 28/34/1 27/3/1
f 28/5/2 30/35/2 29/6/2
f 30/8/14 32/36/14 31/9/14
f 32/11/4 34/37/4 33/12/4
f 26/14/5 36/15/5 30/22/5
f 36/15/5 34/38/5 30/22/5
f 34/38/5 32/23/5 30/22/5
f 36/17/6 26/39/6 25/18/6
f 34/20/7 36/40/7 35/21/7
f 38/2/1 40/34/1 39/3/1
f 40/5/2 42/35/2 41/6/2
f 42/8/14 44/36/14 43/9/14
f 44/11/4 46/37/4 45/12/4
f 40/13/5 38/14/5 44/23/5
f 38/14/5 48/15/5 44/23/5
f 48/15/5 46/38/5 44/23/5
f 48/17/6 38/39/6 37/18/6
f 46/20/7 48/40/7 47/21/7
f 53/25/15 54/28/15 50/26/15
f 54/27/16 55/29/16 51/28/16
f 55/25/7 56/28/7 52/26/7
f 49/28/12 52/25/12 56/27/12
f 50/26/13 51/32/13 52/31/13
f 56/26/5 55/29/5 54/33/5
