# Blender v2.69 (sub 0) OBJ File: ''
# www.blender.org
o Cube_Cube.004
v -1.000000 -1.000000 -1.000000
v -1.000000 1.000000 -1.000000
v -1.000000 -1.000000 1.000000
v 1.000000 1.000000 -1.000000
v 1.000000 -1.000000 -1.000000
v -1.000000 1.000000 1.000000
v 1.000000 1.000000 1.000000
v 1.000000 -1.000000 1.000000
vt 0.000000 0.000000
vt 1.000000 0.000000
vt 0.000000 1.000000
vt 1.000000 1.000000
vn 1.000000 -0.000000 0.000000
vn 0.000000 -0.000000 1.000000
vn 0.000000 -1.000000 -0.000000
vn 0.000000 0.000000 -1.000000
vn 0.000000 1.000000 0.000000
s off
f 1/1/1 2/2/1 3/3/1
f 4/3/2 1/2/2 5/4/2
f 2/2/3 4/1/3 6/4/3
f 2/2/1 6/4/1 3/3/1
f 2/1/2 1/2/2 4/3/2
f 4/1/3 7/3/3 6/4/3
f 3/3/4 6/4/4 7/2/4
f 3/1/5 5/4/5 1/3/5
f 8/2/5 5/4/5 3/1/5
f 8/1/4 3/3/4 7/2/4
