# Blender v2.69 (sub 0) OBJ File: ''
# www.blender.org
mtllib box.mtl
o Cube_Cube.005
v -1.000000 -1.000000 1.000000
v -1.000000 -1.000000 -1.000000
v 1.000000 -1.000000 -1.000000
v 1.000000 -1.000000 1.000000
v -1.000000 1.000000 1.000000
v -1.000000 1.000000 -1.000000
v 1.000000 1.000000 -1.000000
v 1.000000 1.000000 1.000000
vt 0.000000 0.000000
vt 1.000000 0.000000
vt 0.000000 1.000000
vt 1.000000 1.000000
vn -1.000000 0.000000 0.000000
vn 0.000000 0.000000 -1.000000
vn 1.000000 0.000000 0.000000
vn 0.000000 0.000000 1.000000
vn 0.000000 -1.000000 0.000000
vn 0.000000 1.000000 0.000000
usemtl Material.008
s off
f 5/1/1 6/2/1 1/3/1
f 6/1/2 7/2/2 2/3/2
f 7/1/3 8/2/3 3/3/3
f 8/1/4 5/2/4 4/3/4
f 1/1/5 2/2/5 4/3/5
f 8/1/6 7/2/6 5/3/6
f 6/2/1 2/4/1 1/3/1
f 7/2/2 3/4/2 2/3/2
f 8/2/3 4/4/3 3/3/3
f 5/2/4 1/4/4 4/3/4
f 2/2/5 3/4/5 4/3/5
f 7/2/6 6/4/6 5/3/6
